
<svg viewBox="-21 -31 682.66669 682" xmlns="http://www.w3.org/2000/svg" height="100%" width="100%" style="fill: white">
<path d="m604.628906 248.144531h-36.132812c7.96875-41.359375-26.898438-80.328125-70.011719-75.191406-13.5-38.195313-49.695313-64.164063-90.902344-64.164063-43.914062 0-81.691406 29.59375-92.996093 70.824219-40.269532-19.203125-88.917969 2.582031-101.464844 44.492188-32.886719 6.675781-60.25 30.121093-71.605469 62.214843-42.996094-5.394531-78.082031 34.121094-70.027344 75.207032h-36.117187c-19.511719 0-35.371094 15.859375-35.371094 35.371094 0 19.496093 15.859375 35.371093 35.371094 35.371093h20.585937c5.195313 0 9.414063-4.21875 9.414063-9.410156 0-5.195313-4.21875-9.414063-9.414063-9.414063h-20.585937c-9.136719 0-16.550782-7.425781-16.550782-16.546874 0-9.136719 7.414063-16.546876 16.550782-16.546876h48.828125c6.792969 0 11.3125-6.980468 8.648437-13.140624-14.527344-33.597657 16.261719-70.648438 52.808594-60.960938 5.046875 1.332031 10.246094-1.710938 11.53125-6.789062 6.828125-26.9375 27.234375-47.503907 52.832031-55.179688 45.886719-13.84375 93.589844 17.046875 99.433594 64.789062.863281 7.152344 9.183594 10.714844 14.957031 6.398438 21.824219-16.222656 50.558594-13.175781 69.167969 3.410156 31.351563 27.910156 18.707031 80.832032-21.816406 93.152344-8.25 2.472656-4.402344.960938-83.851563 1.414062h-194.3125c-5.195312 0-9.410156 4.21875-9.410156 9.414063 0 5.191406 4.214844 9.410156 9.410156 9.410156h179.308594c-3.539062 6.859375-5.773438 14.390625-6.574219 22.28125-27.441406 5.625-49.878906 25.882813-58.167969 52.683594-37.179687-15.824219-82.046874 10.277344-82.046874 54.292969 0 35.996094 31.933593 58.96875 53.929687 58.96875h254.914063c16.308593 0 29.585937-13.277344 29.585937-29.585938 0-16.320312-13.277344-29.597656-29.585937-29.597656h-25.621094c1.832031-12.886719-1.339844-26.058594-9.109375-36.976562h96.121093c5.195313 0 9.410157-4.214844 9.410157-9.410157 0-5.207031-4.214844-9.410156-9.410157-9.410156h-120.824218c-6.863282-2.46875-14.230469-3.453125-21.667969-2.796875-10.777344-28.519531-37.539063-48.167969-68.355469-49.632812 1.429688-8.234376 4.996094-15.234376 9.910156-20.816407h67.902344c26.296875 0 64.113282-26.675781 66.5625-68.847656 30.273438-2.035156 58.246094 18.042969 65.832032 47.984375.625 2.429688 2.195312 4.523438 4.351562 5.792969 5.226562 3.078125 7.695312-.300781 16.84375-.300781 25.25 0 44.414062 27.40625 32.304688 52.230468-2.6875 5.503906.554687 12.152344 6.640624 13.351563 5.402344 1.078125 9.34375 5.871093 9.34375 11.40625 0 6.410156-5.21875 11.628906-11.632812 11.628906h-19.570312c-5.207032 0-9.414063 4.203125-9.414063 9.410156 0 5.195313 4.207031 9.410157 9.414063 9.410157h19.570312c30.378906 0 42.070312-39.996094 16.140625-56.261719 10.472656-36.902344-20.488281-73.542969-58.359375-69.707031-12.785156-34.585938-46.828125-56.082032-82.746094-53.726563-1.792968-9.269531-5.347656-17.976563-10.488281-25.761719h186.519531c19.511719 0 35.371094-15.867187 35.371094-35.363281 0-19.511719-15.859375-35.371094-35.371094-35.371094zm-270.019531 257.371094c4.617187 9.804687 2.738281 12.882813 7.984375 15.972656 2.15625 1.269531 4.742188 1.628907 7.171875.976563 27.050781-7.144532 49.0625 20.257812 38.59375 44.53125-2.703125 6.277344 1.945313 13.132812 8.632813 13.132812h37.96875c5.933593 0 10.765624 4.835938 10.765624 10.78125 0 5.933594-4.832031 10.761719-10.765624 10.761719h-254.914063c-10.5 0-35.105469-13.660156-35.105469-40.144531 0-23.695313 19.332032-40.128906 40.328125-40.128906 21.128907 0 23.359375 13.164062 33.085938 8.996093 3.085937-1.3125 5.230469-4.175781 5.644531-7.5 2.957031-24.15625 20.550781-43.375 43.222656-49.234375 26.957032-6.957031 55.515625 6.148438 67.386719 31.855469zm270.019531-205.453125h-204.664062c-21.347656-15.351562-49.867188-18.949219-74.550782-7.089844-11.179687-40.703125-48.179687-70.082031-91.40625-70.777344 13.9375-29.332031 53.28125-41.167968 81.582032-20.113281 5.769531 4.3125 14.09375.761719 14.957031-6.394531 4.757813-38.824219 37.867187-68.082031 77.035156-68.082031 35.574219 0 66.5 24.039062 75.230469 58.46875 1.28125 5.0625 6.46875 8.125 11.53125 6.785156 36.980469-9.789063 67.15625 27.667969 52.808594 60.96875-2.664063 6.15625 1.851562 13.132813 8.648437 13.132813h48.828125c9.136719 0 16.550782 7.417968 16.550782 16.554687 0 9.121094-7.414063 16.546875-16.550782 16.546875zm0 0"/><path d="m76.09375 156.828125h197.546875c27.03125 0 37.710937-35.097656 15.386719-50.242187 8.320312-31.789063-17.523438-63.3125-50.765625-60.699219-10.644531-27.597657-37.277344-46.21875-67.496094-46.21875-31.902344 0-59.496094 20.839843-68.910156 50.246093-35.527344-14.589843-76.589844 11.070313-76.589844 51.394532 0 33.890625 30.105469 55.519531 50.828125 55.519531zm26.585938-84.984375c5.78125 4.300781 14.082031.761719 14.960937-6.40625 3.277344-26.765625 26.113281-46.953125 53.132813-46.953125 24.53125 0 45.867187 16.585937 51.886718 40.332031 1.285156 5.074219 6.472656 8.125 11.527344 6.78125 25.195312-6.667968 45.421875 19.539063 34.523438 41.90625-2.699219 5.542969.582031 12.152344 6.632812 13.347656 4.03125.800782 6.960938 4.375 6.960938 8.496094 0 4.777344-3.886719 8.664063-8.664063 8.664063h-197.546875c-9.574219 0-32.011719-12.484375-32.011719-36.703125 0-30.78125 35.0625-46.988282 58.597657-29.464844zm0 0"/></svg>