<svg viewBox="-21 -21 682.66505 682" height="100%" width="100%" style="fill: white" xmlns="http://www.w3.org/2000/svg"><path d="m605.9375 132.601562h-33.699219c7.242188-39.328124-26.542969-76.105468-66.726562-71.417968-12.992188-36.238282-47.433594-60.851563-86.609375-60.851563-41.691406 0-77.597656 27.980469-88.582032 67.007813-8.097656-3.792969-16.828124-5.976563-25.792968-6.410156-5.191406-.253907-9.617188 3.757812-9.863282 8.957031-.253906 5.195312 3.757813 9.617187 8.953126 9.863281 9.9375.480469 19.507812 3.945312 27.675781 10.027344 5.785156 4.308594 14.101562.765625 14.976562-6.414063 4.476563-36.589843 35.703125-64.1875 72.632813-64.1875 33.53125 0 62.703125 22.671875 70.933594 55.132813.617187 2.441406 2.183593 4.53125 4.355468 5.804687 5.425782 3.199219 7.800782-.503906 18.386719-.503906 28.722656 0 50.53125 30.441406 38.351563 58.6875-2.675782 6.210937 1.882812 13.148437 8.652343 13.148437h46.355469c8.390625 0 15.21875 6.832032 15.21875 15.222657 0 7.878906-5.894531 14.386719-13.714844 15.148437-5.183594.503906-8.972656 5.113282-8.46875 10.289063 1.808594 18.578125 41.03125 5.1875 41.027344-25.4375 0-18.78125-15.28125-34.066407-34.0625-34.066407zm0 0"/><path d="m294.652344 200.730469h276.019531c5.199219 0 9.417969-4.21875 9.417969-9.421875 0-5.199219-4.21875-9.417969-9.417969-9.417969h-276.019531c-6.820313 0-18.140625-4.097656-28.070313-13.242187-25.570312-23.574219-21.203125-63.1875 6.667969-80.804688 4.402344-2.78125 5.714844-8.601562 2.9375-12.996094-2.785156-4.398437-8.601562-5.710937-13-2.933594-20.535156 12.984376-32.3125 34.4375-32.3125 58.878907 0 42.691406 37.773438 69.9375 63.777344 69.9375zm0 0"/><path d="m310.984375 229.339844-16.882813 33.34375c-3.195312 6.304687 1.453126 13.679687 8.398438 13.679687 3.4375 0 6.746094-1.890625 8.414062-5.167969l16.882813-33.34375c2.355469-4.640624.492187-10.308593-4.148437-12.660156-4.640626-2.355468-10.308594-.496094-12.664063 4.148438zm0 0"/><path d="m389.472656 229.320312-16.984375 33.34375c-2.355469 4.636719-.515625 10.308594 4.121094 12.671876 4.664063 2.375 10.324219.488281 12.671875-4.121094l16.984375-33.34375c2.355469-4.632813.515625-10.308594-4.121094-12.671875-4.636719-2.359375-10.308593-.515625-12.671875 4.121093zm0 0"/><path d="m563.621094 229.28125-17.171875 33.34375c-2.382813 4.625-.566407 10.308594 4.058593 12.691406 4.667969 2.402344 10.324219.523438 12.6875-4.0625l17.175782-33.34375c2.382812-4.625.566406-10.308594-4.058594-12.691406-4.628906-2.382812-10.3125-.5625-12.691406 4.0625zm0 0"/><path d="m329.847656 376.570312c3.429688 0 6.738282-1.878906 8.398438-5.144531l16.984375-33.34375c2.363281-4.640625.515625-10.3125-4.117188-12.671875-4.640625-2.363281-10.3125-.519531-12.671875 4.117188l-16.980468 33.34375c-3.222657 6.324218 1.449218 13.699218 8.386718 13.699218zm0 0"/><path d="m353.472656 431.6875c-4.628906-2.367188-10.308594-.539062-12.683594 4.09375l-17.074218 33.34375c-3.222656 6.292969 1.390625 13.714844 8.375 13.714844 3.425781 0 6.726562-1.867188 8.394531-5.125l17.078125-33.34375c2.375-4.628906.542969-10.308594-4.089844-12.683594zm0 0"/><path d="m431.390625 431.699219c-4.628906-2.382813-10.308594-.5625-12.691406 4.0625l-17.171875 33.34375c-3.25 6.320312 1.410156 13.734375 8.371094 13.734375 3.410156 0 6.707031-1.859375 8.382812-5.105469l17.171875-33.34375c2.382813-4.625.5625-10.308594-4.0625-12.691406zm0 0"/><path d="m584.777344 431.6875c-4.628906-2.367188-10.304688-.539062-12.675782 4.09375l-17.078124 33.34375c-3.222657 6.292969 1.394531 13.714844 8.378906 13.714844 3.421875 0 6.722656-1.867188 8.394531-5.125l17.074219-33.34375c2.371094-4.628906.542968-10.308594-4.09375-12.683594zm0 0"/><path d="m307.652344 532.917969c-4.628906-2.371094-10.308594-.542969-12.683594 4.085937l-17.074219 33.347656c-2.371093 4.632813-.542969 10.304688 4.09375 12.679688 4.667969 2.390625 10.324219.503906 12.675781-4.09375l17.078126-33.34375c2.375-4.628906.542968-10.308594-4.089844-12.675781zm0 0"/><path d="m385.046875 532.679688c-4.757813-2.09375-10.320313.066406-12.410156 4.828124l-14.664063 33.34375c-2.75 6.257813 1.875 13.21875 8.625 13.21875 3.621094 0 7.074219-2.105468 8.625-5.628906l14.660156-33.34375c2.09375-4.765625-.070312-10.324218-4.835937-12.417968zm0 0"/><path d="m475.75 532.679688c-4.765625-2.09375-10.320312.066406-12.417969 4.828124l-14.65625 33.34375c-2.75 6.257813 1.871094 13.21875 8.617188 13.21875 3.625 0 7.074219-2.105468 8.628906-5.628906l14.65625-33.34375c2.097656-4.765625-.066406-10.324218-4.828125-12.417968zm0 0"/><path d="m552.425781 532.679688c-4.761719-2.09375-10.316406.066406-12.414062 4.828124l-14.660157 33.34375c-2.089843 4.765626.070313 10.324219 4.832032 12.417969 4.761718 2.09375 10.324218-.0625 12.417968-4.832031l14.65625-33.347656c2.097657-4.757813-.066406-10.316406-4.832031-12.410156zm0 0"/><path d="m586.902344 319.585938h-97.65625l32.132812-48.027344c8.601563-12.859375 9.386719-28.683594 2.097656-42.332032-14.96875-28.019531-53.765624-28.894531-70.699218-3.339843l-86.542969 130.640625c-9.988281 15.082031.851563 35.253906 18.9375 35.253906h91.449219c4.167968 0 6.28125 2.769531 6.996094 3.957031.71875 1.191407 2.171874 4.355469.21875 8.035157l-34.335938 64.730468c-9.210938 17.363282 13.589844 33.777344 27.179688 19.792969l126.507812-130.171875c14.011719-14.414062 3.785156-38.539062-16.285156-38.539062zm2.773437 25.410156-117.421875 120.824218 28.226563-53.214843c4.484375-8.445313 4.214843-18.382813-.710938-26.574219-4.933593-8.195312-13.585937-13.09375-23.144531-13.09375h-91.449219c-3.085937 0-4.953125-3.40625-3.226562-6.003906l86.539062-130.640625c4.15625-6.269531 11.125-10.015625 18.644531-10.015625 8.398438 0 15.769532 4.425781 19.726563 11.832031 3.953125 7.40625 3.53125 15.992187-1.136719 22.972656l-41.945312 62.6875c-1.933594 2.890625-2.117188 6.609375-.476563 9.675781 1.632813 3.066407 4.832031 4.988282 8.308594 4.988282h115.296875c3.414062-.007813 5.183594 4.082031 2.769531 6.5625zm0 0"/><path d="m280.878906 340.660156c-4.746094-2.109375-10.3125.027344-12.4375 4.789063-2.109375 4.746093.039063 10.320312 4.785156 12.429687 16.230469 7.203125 26.320313 22.691406 26.320313 40.402344 0 29.242188-27.238281 44.316406-38.855469 44.316406h-80.34375l16.378906-24.492187c8.605469-12.851563 9.394532-28.683594 2.109376-42.324219-14.949219-27.972656-53.730469-28.945312-70.707032-3.339844l-46.472656 70.15625h-51.175781c-6.421875 0-11.648438-5.226562-11.648438-11.644531 0-5.539063 3.933594-10.339844 9.363281-11.40625 6.027344-1.21875 9.339844-7.769531 6.640626-13.375-13.386719-27.316406 11.457031-59.085937 42.003906-51 5.152344 1.351563 10.285156-1.777344 11.542968-6.796875 7.1875-28.351562 32.675782-48.160156 61.984376-48.160156 32.253906 0 59.523437 24.101562 63.445312 56.074218.402344 3.324219 2.550781 6.191407 5.640625 7.507813 7.992187 3.449219 9.476563-4.128906 23.414063-8.136719 4.988281-1.457031 7.863281-6.6875 6.417968-11.679687-1.445312-4.992188-6.667968-7.867188-11.667968-6.421875-2.714844.777344-5.351563 1.746094-7.925782 2.898437-10.261718-34.492187-42.261718-59.085937-79.324218-59.085937-34.972657 0-65.738282 21.78125-77.632813 53.949218-37.71875-3.820312-68.964844 32.710938-58.414063 69.792969-25.96875 16.292969-14.2460932 56.328125 16.160157 56.328125h38.699219l-27.582032 41.640625c-9.984375 15.082031.828125 35.246094 18.925782 35.246094h91.449218c6.167969 0 10.105469 6.539063 7.222656 11.996094l-34.34375 64.726562c-9.210937 17.398438 13.628907 33.757813 27.183594 19.800781l126.503906-130.175781c14.015626-14.394531 3.792969-38.539062-16.277343-38.539062h-97.667969l3.144531-4.695313h92.953125c23.515625 0 57.695313-24.609375 57.695313-63.160156 0-25.273438-14.367188-47.34375-37.507813-57.621094zm-141.742187 129.660156c-4.191407 6.257813.320312 14.660157 7.820312 14.660157h115.304688c3.457031 0 5.144531 4.105469 2.777343 6.570312l-117.425781 120.816407 28.226563-53.214844c9.535156-17.949219-3.46875-39.667969-23.867188-39.667969h-91.449218c-3.109376 0-4.921876-3.421875-3.226563-6.003906 93.816406-141.628907 36.515625-55.117188 86.546875-130.640625 9.1875-13.886719 30.277344-13.367188 38.363281 1.824218 3.960938 7.402344 3.53125 15.988282-1.128906 22.960938-22.085937 32.996094-35.082031 52.433594-41.941406 62.695312zm0 0"/></svg>