<svg viewBox="0 -7 512 511" height="100%" width="100%" style="fill: white" xmlns="http://www.w3.org/2000/svg"><path d="m32.046875 388.304688c-2.347656-1.359376-5.238281-1.359376-7.582031 0-15.089844 8.730468-24.464844 24.96875-24.464844 42.375 0 .644531.0117188 1.285156.0390625 1.925781.6796875 17.578125 14.7109375 26.777343 28.2148435 26.777343s27.535156-9.199218 28.21875-26.777343c.023438-.640625.035156-1.28125.035156-1.925781 0-17.40625-9.375-33.644532-24.460937-42.375zm9.300781 43.710937c-.351562 9.027344-7.273437 12.230469-13.09375 12.230469-5.820312 0-12.742187-3.203125-13.089844-12.230469-.019531-.445313-.027343-.890625-.027343-1.335937 0-10.492188 4.933593-20.367188 13.117187-26.722657 8.183594 6.355469 13.117188 16.234375 13.117188 26.722657 0 .445312-.007813.890624-.023438 1.335937zm0 0"/><path d="m122.71875 426.984375c-2.34375-1.355469-5.234375-1.355469-7.582031 0-15.089844 8.734375-24.460938 24.96875-24.460938 42.375 0 .644531.011719 1.289063.035157 1.925781.683593 17.582032 14.710937 26.777344 28.21875 26.777344 13.503906 0 27.53125-9.195312 28.214843-26.773438.023438-.640624.039063-1.285156.039063-1.929687 0-17.40625-9.375-33.640625-24.464844-42.375zm9.300781 43.714844c-.351562 9.027343-7.273437 12.230469-13.089843 12.230469-5.820313 0-12.742188-3.203126-13.09375-12.234376-.019532-.445312-.027344-.886718-.027344-1.335937 0-10.488281 4.933594-20.363281 13.121094-26.722656 8.183593 6.359375 13.117187 16.234375 13.117187 26.722656 0 .449219-.011719.890625-.027344 1.339844zm0 0"/><path d="m122.71875 320.816406c-2.34375-1.355468-5.238281-1.355468-7.582031 0-15.089844 8.734375-24.464844 24.96875-24.464844 42.375 0 .644532.011719 1.289063.039063 1.925782.679687 17.582031 14.710937 26.78125 28.214843 26.78125 13.503907 0 27.535157-9.199219 28.21875-26.777344.023438-.640625.035157-1.285156.035157-1.929688.003906-17.40625-9.371094-33.640625-24.460938-42.375zm9.300781 43.714844c-.351562 9.027344-7.273437 12.230469-13.089843 12.230469-5.820313 0-12.742188-3.203125-13.09375-12.234375-.019532-.441406-.027344-.890625-.027344-1.335938 0-10.492187 4.933594-20.367187 13.121094-26.722656 8.183593 6.355469 13.117187 16.230469 13.117187 26.722656 0 .449219-.011719.894532-.027344 1.339844zm0 0"/><path d="m213.390625 388.304688c-2.34375-1.359376-5.234375-1.359376-7.582031 0-15.089844 8.730468-24.460938 24.96875-24.460938 42.375 0 .644531.011719 1.285156.035156 1.925781.683594 17.578125 14.710938 26.777343 28.21875 26.777343 13.503907 0 27.535157-9.199218 28.214844-26.785156.027344-.636718.039063-1.277344.039063-1.917968 0-17.40625-9.375-33.644532-24.464844-42.375zm9.304687 43.710937c-.351562 9.027344-7.273437 12.230469-13.09375 12.230469-5.820312 0-12.742187-3.203125-13.09375-12.230469-.015624-.445313-.023437-.890625-.023437-1.335937 0-10.492188 4.933594-20.367188 13.117187-26.722657 8.183594 6.355469 13.117188 16.234375 13.117188 26.722657 0 .449218-.007812.894531-.023438 1.335937zm0 0"/><path d="m304.066406 426.984375c-2.34375-1.355469-5.238281-1.355469-7.582031 0-15.089844 8.734375-24.464844 24.96875-24.464844 42.375 0 .644531.015625 1.28125.039063 1.925781.683594 17.582032 14.710937 26.777344 28.214844 26.777344 13.507812 0 27.535156-9.195312 28.21875-26.773438.023437-.640624.035156-1.285156.035156-1.929687 0-17.40625-9.371094-33.640625-24.460938-42.375zm9.300782 43.714844c-.351563 9.027343-7.273438 12.230469-13.09375 12.230469-5.820313 0-12.738282-3.203126-13.089844-12.226563-.019532-.445313-.027344-.894531-.027344-1.34375 0-10.488281 4.933594-20.363281 13.117188-26.722656 8.183593 6.359375 13.117187 16.234375 13.117187 26.722656.003906.449219-.007813.890625-.023437 1.339844zm0 0"/><path d="m485.9375 426.984375c-2.347656-1.355469-5.238281-1.355469-7.582031 0-15.089844 8.734375-24.464844 24.96875-24.464844 42.375 0 .644531.011719 1.289063.039063 1.925781.683593 17.582032 14.710937 26.777344 28.214843 26.777344 13.507813 0 27.535157-9.195312 28.21875-26.773438.023438-.640624.035157-1.285156.035157-1.929687 0-17.40625-9.371094-33.640625-24.460938-42.375zm9.300781 43.714844c-.351562 9.027343-7.273437 12.230469-13.09375 12.230469-5.820312 0-12.738281-3.203126-13.089843-12.234376-.019532-.445312-.027344-.886718-.027344-1.335937 0-10.488281 4.933594-20.363281 13.117187-26.722656 8.183594 6.359375 13.117188 16.234375 13.117188 26.722656 0 .449219-.007813.890625-.023438 1.339844zm0 0"/><path d="m394.738281 388.304688c-2.34375-1.359376-5.234375-1.359376-7.582031 0-15.089844 8.730468-24.460938 24.96875-24.460938 42.375 0 .644531.011719 1.285156.035157 1.925781.683593 17.578125 14.710937 26.777343 28.21875 26.777343 13.503906 0 27.535156-9.199218 28.214843-26.777343.027344-.640625.039063-1.28125.039063-1.925781 0-17.40625-9.375-33.644532-24.464844-42.375zm9.300781 43.710937c-.351562 9.027344-7.269531 12.230469-13.089843 12.230469-5.820313 0-12.742188-3.203125-13.09375-12.230469-.015625-.445313-.023438-.890625-.023438-1.335937 0-10.492188 4.933594-20.367188 13.117188-26.722657 8.183593 6.355469 13.117187 16.234375 13.117187 26.722657 0 .445312-.007812.890624-.027344 1.335937zm0 0"/><path d="m512 312.421875c0-16.125-6.214844-31.355469-17.5-42.878906-9.710938-9.921875-22.25-16.152344-35.828125-17.914063-.417969-2.664062-.9375-5.316406-1.554687-7.9375-5.375-22.78125-18.449219-43.433594-36.808594-58.15625-2.945313-2.359375-6.023438-4.53125-9.191406-6.550781-1.242188-17.667969-8.703126-34.164063-21.277344-46.835937-11.996094-12.085938-27.511719-19.558594-44.246094-21.425782-.535156-3.707031-1.238281-7.394531-2.09375-11.019531-6.554688-27.78125-22.496094-52.96875-44.886719-70.925781-22.746093-18.234375-51.355469-28.277344-80.5625-28.277344-47.21875 0-89.921875 25.265625-112.703125 66.292969-2.921875-.265625-5.8125-.398438-8.640625-.398438-12.949219 0-25.515625 2.539063-37.347656 7.542969-3.851563 1.628906-5.652344 6.070312-4.023437 9.917969 1.628906 3.847656 6.070312 5.652343 9.917968 4.023437 9.957032-4.214844 20.542969-6.351562 31.453125-6.351562 3.824219 0 7.800781.296875 11.832031.875 3.214844.460937 6.371094-1.183594 7.835938-4.089844 19.464844-38.660156 58.425781-62.675781 101.675781-62.675781 26.152344 0 50.734375 8.628906 71.09375 24.949219 19.769531 15.851562 33.839844 38.082031 39.625 62.59375 1.179688 4.996093 2.023438 10.121093 2.511719 15.242187.289062 3.84375 3.453125 6.898437 7.371094 6.988281 27.3125.628906 49.78125 19.503906 55.878906 44.953125-12.707031-5.234375-26.40625-8.011719-40.28125-8.011719-38.398438 0-73.164062 20.378907-91.953125 53.535157-2.078125-.164063-4.140625-.246094-6.179687-.246094-23.917969 0-45.375 10.691406-59.882813 27.53125h-99.523437c-44.566407 0-80.820313-36.253906-80.820313-80.816406 0-22.507813 9.027344-43.40625 25.417969-58.847657 3.042968-2.863281 3.1875-7.65625.320312-10.695312-2.863281-3.042969-7.65625-3.1875-10.699218-.320312-19.175782 18.066406-30.171876 43.53125-30.171876 69.867187 0 52.90625 43.042969 95.953125 95.953126 95.953125h89.261718c-5.675781 10.898438-8.90625 23.265625-8.90625 36.378906 0 43.589844 35.460938 79.054688 79.050782 79.054688h111.5c4.179687 0 7.566406-3.390625 7.566406-7.570313 0-4.179687-3.386719-7.566406-7.566406-7.566406h-111.5c-35.242188 0-63.914063-28.675781-63.914063-63.917969 0-35.242187 28.671875-63.914062 63.914063-63.914062 3.050781 0 6.195312.230468 9.347656.691406 3.21875.464844 6.382812-1.179688 7.84375-4.085938 15.5-30.777343 46.515625-49.894531 80.941406-49.894531 20.816406 0 40.386719 6.867188 56.589844 19.859375 15.738281 12.617188 26.941406 30.308594 31.542968 49.820313.941407 3.984375 1.613282 8.058593 2 12.105469.289063 3.847656 3.453126 6.902343 7.375 6.992187 12.105469.277344 23.445313 5.203125 31.929688 13.867187 8.496094 8.679688 13.175781 20.144532 13.175781 32.289063 0 25.46875-20.722656 46.1875-46.195312 46.1875h-52.777344c-4.179687 0-7.566406 3.386719-7.566406 7.566406 0 4.179688 3.386719 7.570313 7.566406 7.570313h52.777344c33.820312 0 61.332031-27.511719 61.332031-61.324219zm0 0"/></svg>