<svg viewBox="-21 -23 682.66678 682" height="100%" width="100%" style="fill: white" xmlns="http://www.w3.org/2000/svg"><path d="m138.898438 237.871094c-4.660157-2.359375-10.339844-.492188-12.695313 4.160156l-17.859375 35.257812c-3.203125 6.324219 1.460938 13.710938 8.425781 13.710938 3.441407 0 6.765625-1.894531 8.429688-5.175781l17.851562-35.257813c2.359375-4.652344.5-10.335937-4.152343-12.695312zm0 0"/><path d="m199.644531 291c3.4375 0 6.753907-1.882812 8.421875-5.160156l17.960938-35.257813c2.363281-4.648437.515625-10.332031-4.132813-12.699219-4.644531-2.371093-10.335937-.519531-12.703125 4.128907l-17.957031 35.257812c-3.226563 6.34375 1.464844 13.730469 8.410156 13.730469zm0 0"/><path d="m85.238281 343.828125c-4.65625-2.351563-10.335937-.492187-12.695312 4.160156l-17.855469 35.257813c-2.351562 4.65625-.492188 10.339844 4.160156 12.691406 4.679688 2.367188 10.351563.46875 12.695313-4.15625l17.855469-35.257812c2.355468-4.652344.496093-10.335938-4.160157-12.695313zm0 0"/><path d="m167.929688 343.839844c-4.644532-2.363282-10.332032-.519532-12.699219 4.128906l-17.953125 35.257812c-2.371094 4.648438-.519532 10.332032 4.125 12.703126 4.667968 2.375 10.347656.496093 12.703125-4.128907l17.957031-35.257812c2.367188-4.648438.515625-10.335938-4.132812-12.703125zm0 0"/><path d="m250.628906 343.847656c-4.640625-2.371094-10.335937-.542968-12.714844 4.101563l-18.054687 35.257812c-2.378906 4.644531-.542969 10.332031 4.101563 12.710938 4.675781 2.398437 10.351562.503906 12.710937-4.097657l18.054687-35.257812c2.378907-4.644531.542969-10.335938-4.097656-12.714844zm0 0"/><path d="m31.582031 449.785156c-4.65625-2.351562-10.335937-.492187-12.695312 4.160156l-17.855469 35.257813c-3.203125 6.324219 1.460938 13.71875 8.417969 13.71875 3.449219 0 6.773437-1.894531 8.433593-5.183594l17.855469-35.257812c2.359375-4.652344.496094-10.335938-4.15625-12.695313zm0 0"/><path d="m113.96875 449.800781c-4.640625-2.367187-10.332031-.523437-12.699219 4.125l-17.957031 35.257813c-2.363281 4.648437-.519531 10.339844 4.128906 12.703125 4.667969 2.375 10.347656.496093 12.699219-4.128907l17.960937-35.257812c2.363282-4.648438.515626-10.335938-4.132812-12.699219zm0 0"/><path d="m196.359375 449.808594c-4.640625-2.375-10.328125-.546875-12.710937 4.097656l-18.058594 35.257812c-2.375 4.644532-.539063 10.332032 4.101562 12.710938 4.683594 2.398438 10.351563.503906 12.710938-4.097656l18.058594-35.257813c2.375-4.644531.539062-10.332031-4.101563-12.710937zm0 0"/><path d="m570.503906 339.71875h-276.691406c-6.835938 0-18.191406-4.109375-28.144531-13.273438-25.613281-23.609374-21.261719-63.34375 6.691406-80.996093 4.402344-2.792969 5.726563-8.621094 2.933594-13.03125-2.78125-4.40625-8.613281-5.726563-13.023438-2.933594-20.589843 13.007813-32.386719 34.515625-32.402343 59.023437 0 42.785157 37.882812 70.097657 63.945312 70.097657h276.691406c5.214844 0 9.441406-4.214844 9.441406-9.445313 0-5.210937-4.226562-9.441406-9.441406-9.441406zm0 0"/><path d="m605.851562 290.316406h-33.769531c7.257813-39.40625-26.636719-76.335937-66.894531-71.601562-6.320312-17.640625-17.714844-32.523438-32.273438-43.175782 4.285157-7 7.570313-14.972656 9.277344-23.875.988282-5.109374-2.363281-10.070312-7.472656-11.054687-5.144531-.996094-10.078125 2.363281-11.070312 7.476563-1.300782 6.714843-3.804688 12.695312-7.050782 17.910156-11.714844-5.339844-24.683594-8.277344-38.234375-8.277344-28.8125 0-54.863281 13.328125-71.875 34.414062h-259.035156c-9.15625 0-16.609375-7.441406-16.609375-16.605468 0-9.15625 7.453125-16.609375 16.609375-16.609375h49.023437c6.78125 0 11.347657-6.960938 8.660157-13.183594-14.574219-33.878906 16.464843-70.871094 53.011719-61.1875 4.980468 1.34375 10.242187-1.632813 11.574218-6.796875 8.753906-34.554688 39.804688-58.695312 75.503906-58.695312 39.316407 0 72.542969 29.378906 77.316407 68.328124.867187 7.160157 9.175781 10.765626 15.011719 6.429688 29.109374-21.703125 69.957031-8.699219 82.96875 22.644531 2 4.808594 7.527343 7.101563 12.339843 5.101563 4.824219-2.003906 7.101563-7.535156 5.101563-12.34375-15.570313-37.484375-61.242188-56.261719-99.414063-37.988282-11.347656-41.351562-49.261719-71.058593-93.324219-71.058593-41.355468 0-77.683593 26.0625-91.230468 64.382812-20.097656-2.425781-39.179688 4.589844-53.039063 18.839844-13.953125 14.359375-21.351562 35.394531-17.25 56.640625h-36.253906c-19.566406 0-35.5 15.925781-35.5 35.496094 0 19.582031 15.933594 35.5 35.5 35.5h247.257813c-2.074219 4.433594-3.796876 9.066406-5.144532 13.859375-8.125-3.800781-16.875-5.988281-25.863281-6.417969-5.242187-.253906-9.636719 3.761719-9.890625 8.976562-.246094 5.210938 3.78125 9.628907 8.980469 9.882813 9.960937.480469 19.554687 3.957031 27.753906 10.066406 5.792969 4.300781 14.113281.765625 15.011719-6.4375 1.332031-10.957031 5.0625-21.09375 10.613281-29.929687 34.40625-54.695313 117.503906-41.394532 133.300781 20.847656 1.273438 5.050781 6.445313 8.164062 11.574219 6.816406 3.738281-.996094 7.519531-1.5 11.21875-1.5 22.714844 0 41.90625 19.390625 41.90625 42.351563 0 15.15625-7.429687 18.183593-2.667969 25.410156 1.75 2.65625 4.707032 4.25 7.882813 4.25h46.464843c8.421876 0 15.261719 6.84375 15.261719 15.265625 0 7.894531-5.90625 14.417969-13.75 15.183594-5.191406.503906-8.992187 5.113281-8.492187 10.3125 1.828125 18.59375 41.128906 5.234375 41.128906-25.496094 0-18.839844-15.3125-34.152344-34.148438-34.152344zm0 0"/><path d="m322.875 383.128906c-4.652344-2.355468-10.335938-.496094-12.6875 4.160156l-16.929688 33.425782c-2.355468 4.652344-.492187 10.335937 4.160157 12.695312 4.675781 2.367188 10.351562.46875 12.691406-4.160156l16.925781-33.429688c2.355469-4.652343.496094-10.335937-4.160156-12.691406zm0 0"/><path d="m401.5625 383.140625c-4.644531-2.367187-10.332031-.523437-12.699219 4.128906l-17.023437 33.425781c-2.367188 4.648438-.515625 10.335938 4.132812 12.703126 4.644532 2.367187 10.332032.511718 12.699219-4.128907l17.023437-33.429687c2.367188-4.648438.515626-10.332032-4.132812-12.699219zm0 0"/><path d="m480.253906 383.148438c-4.644531-2.375-10.332031-.539063-12.710937 4.101562l-17.121094 33.425781c-2.378906 4.640625-.542969 10.335938 4.101563 12.707031 4.679687 2.402344 10.355468.503907 12.714843-4.09375l17.117188-33.429687c2.378906-4.636719.542969-10.332031-4.101563-12.710937zm0 0"/><path d="m558.941406 383.160156c-4.628906-2.386718-10.328125-.566406-12.71875 4.070313l-17.21875 33.425781c-2.386718 4.636719-.5625 10.332031 4.074219 12.722656 4.648437 2.394532 10.335937.550782 12.71875-4.070312l17.214844-33.429688c2.394531-4.636718.566406-10.332031-4.070313-12.71875zm0 0"/><path d="m272.007812 483.585938c-4.652343-2.359376-10.335937-.5-12.695312 4.160156l-16.925781 33.421875c-2.355469 4.652343-.492188 10.335937 4.160156 12.695312 4.679687 2.367188 10.347656.460938 12.691406-4.160156l16.929688-33.429687c2.351562-4.652344.492187-10.335938-4.160157-12.6875zm0 0"/><path d="m350.40625 483.59375c-4.644531-2.367188-10.332031-.515625-12.699219 4.132812l-17.027343 33.421876c-2.363282 4.648437-.519532 10.335937 4.128906 12.699218 4.648437 2.371094 10.339844.515625 12.707031-4.125l17.019531-33.429687c2.371094-4.648438.519532-10.332031-4.128906-12.699219zm0 0"/><path d="m428.808594 483.605469c-4.644532-2.378907-10.332032-.542969-12.714844 4.101562l-17.117188 33.421875c-2.378906 4.640625-.542968 10.332032 4.101563 12.707032 4.679687 2.398437 10.351563.503906 12.707031-4.09375l17.125-33.429688c2.375-4.640625.539063-10.332031-4.101562-12.707031zm0 0"/><path d="m507.207031 483.613281c-4.632812-2.386719-10.332031-.566406-12.722656 4.074219l-17.214844 33.421875c-2.386719 4.636719-.566406 10.332031 4.074219 12.722656 4.644531 2.394531 10.335938.550781 12.71875-4.070312l17.21875-33.429688c2.386719-4.636719.558594-10.332031-4.074219-12.71875zm0 0"/><path d="m221.136719 584.039062c-4.652344-2.359374-10.335938-.496093-12.695313 4.160157l-16.921875 33.421875c-2.359375 4.652344-.5 10.335937 4.15625 12.695312 4.679688 2.367188 10.351563.46875 12.695313-4.160156l16.925781-33.429688c2.355469-4.652343.496094-10.335937-4.160156-12.6875zm0 0"/><path d="m299.25 584.046875c-4.644531-2.367187-10.332031-.523437-12.703125 4.132813l-17.023437 33.421874c-2.371094 4.648438-.519532 10.335938 4.128906 12.703126 4.667968 2.378906 10.34375.496093 12.699218-4.128907l17.027344-33.429687c2.367188-4.648438.519532-10.332032-4.128906-12.699219zm0 0"/><path d="m377.359375 584.058594c-4.644531-2.378906-10.332031-.542969-12.710937 4.09375l-17.125 33.429687c-2.375 4.644531-.539063 10.332031 4.101562 12.710938 4.683594 2.394531 10.359375.5 12.714844-4.097657l17.121094-33.429687c2.378906-4.640625.542968-10.332031-4.101563-12.707031zm0 0"/><path d="m455.46875 584.066406c-4.632812-2.386718-10.332031-.566406-12.71875 4.074219l-17.21875 33.421875c-2.386719 4.636719-.566406 10.332031 4.074219 12.71875 4.644531 2.398438 10.335937.558594 12.71875-4.066406l17.21875-33.429688c2.386719-4.636718.566406-10.332031-4.074219-12.71875zm0 0"/></svg>