<svg viewBox="1 -31 511.99975 511" height="100%" width="100%" style="fill: white" xmlns="http://www.w3.org/2000/svg"><path d="m23.707031 327.695312c1.917969 0 3.839844-.730468 5.304688-2.195312l16.90625-16.910156c2.929687-2.925782 2.929687-7.675782 0-10.605469-2.929688-2.929687-7.679688-2.929687-10.605469 0l-16.90625 16.90625c-2.929688 2.929687-2.929688 7.679687 0 10.609375 1.460938 1.464844 3.382812 2.195312 5.300781 2.195312zm0 0"/><path d="m79.054688 374.113281c-2.925782-2.929687-7.675782-2.929687-10.605469 0l-16.90625 16.90625c-2.929688 2.929688-2.929688 7.679688 0 10.605469 1.464843 1.464844 3.382812 2.199219 5.304687 2.199219 1.917969 0 3.835938-.734375 5.300782-2.199219l16.90625-16.90625c2.929687-2.929688 2.929687-7.675781 0-10.605469zm0 0"/><path d="m262.542969 321.664062c-2.117188-6.972656-8.433594-11.65625-15.71875-11.65625h-37.179688l35.992188-35.992187h53.097656l-23.972656 23.96875c-2.929688 2.929687-2.929688 7.679687 0 10.605469 1.464843 1.464844 3.382812 2.199218 5.304687 2.199218 1.917969 0 3.839844-.734374 5.304688-2.199218l32.566406-32.566406c.601562-.601563 1.074219-1.285157 1.429688-2.007813h31.304687c4.144531 0 7.5-3.359375 7.5-7.5 0-4.144531-3.355469-7.5-7.5-7.5h-46.121094c11.988281-9.46875 20.855469-22.882813 24.617188-38.671875.960937-4.03125-1.527344-8.074219-5.558594-9.035156-4.035156-.960938-8.070313 1.527344-9.03125 5.558594-5.914063 24.816406-27.878906 42.148437-53.417969 42.148437h-176.304687c-22.914063 0-41.558594-18.644531-41.558594-41.5625 0-22.507813 17.617187-40.746094 40.105469-41.519531 3.863281-.132813 6.992187-3.183594 7.226562-7.042969 1.285156-21.222656 10.457032-41.074219 25.828125-55.898437 2.980469-2.875 3.066407-7.621094.191407-10.601563-2.875-2.984375-7.625-3.066406-10.605469-.191406-16.519531 15.933593-26.953125 36.8125-29.789063 59.355469-27.371094 4.117187-47.957031 27.515624-47.957031 55.902343 0 31.1875 25.375 56.558594 56.558594 56.558594h7.441406l-90.101563 90.101563c-2.925781 2.929687-2.925781 7.675781 0 10.605468 1.464844 1.464844 3.386719 2.195313 5.304688 2.195313s3.839844-.730469 5.304688-2.195313l100.707031-100.707031h35.625l-53.832031 53.832031c-4.714844 4.714844-6.113282 11.742188-3.5625 17.902344 2.554687 6.164062 8.511718 10.144531 15.179687 10.144531h34.277344l-66 66c-6.101563 6.105469-6.554688 15.375-1.078125 22.042969 3.285156 4 7.894531 6.085938 12.609375 6.085938 3.152343 0 6.351562-.933594 9.226562-2.855469l160.003907-107.074219c6.054687-4.050781 8.699218-11.457031 6.582031-18.429688zm-14.925781 5.964844-160.003907 107.070313c-.429687.289062-1.078125.722656-1.898437-.28125-.824219-1-.273438-1.550781.09375-1.917969l78.800781-78.800781c2.148437-2.144531 2.789063-5.371094 1.628906-8.171875-1.164062-2.804688-3.898437-4.632813-6.929687-4.632813h-52.386719c-.234375 0-.953125 0-1.320313-.882812-.363281-.882813.144532-1.390625.3125-1.558594l64.4375-64.4375h54.074219l-38.191406 38.191406c-2.144531 2.144531-2.785156 5.371094-1.625 8.171875 1.160156 2.804688 3.894531 4.628906 6.929687 4.628906h55.285157c.316406 0 1.058593 0 1.367187 1.015626.308594 1.015624-.308594 1.429687-.574218 1.605468zm0 0"/><path d="m367.109375 289.441406c-2.929687-2.929687-7.679687-2.929687-10.605469 0l-58.546875 58.546875c-2.929687 2.929688-2.929687 7.675781 0 10.605469 1.464844 1.464844 3.386719 2.195312 5.304688 2.195312s3.839843-.730468 5.304687-2.195312l58.542969-58.546875c2.929687-2.925781 2.929687-7.675781 0-10.605469zm0 0"/><path d="m272.75 373.195312-18.746094 18.746094c-2.929687 2.929688-2.929687 7.675782 0 10.605469 1.464844 1.464844 3.382813 2.195313 5.304688 2.195313 1.917968 0 3.835937-.730469 5.300781-2.195313l18.746094-18.746094c2.929687-2.929687 2.929687-7.679687 0-10.605469-2.925781-2.929687-7.675781-2.929687-10.605469 0zm0 0"/><path d="m512 197.890625c0-19.867187-7.609375-38.667969-21.429688-52.9375-12.222656-12.613281-28.132812-20.5-45.359374-22.601563-7.464844-68.839843-65.957032-121.851562-135.945313-121.851562-26.332031 0-51.902344 7.503906-73.945313 21.699219-20.355468 13.109375-36.8125 31.300781-47.808593 52.761719-3.996094-.496094-8.046875-.761719-12.136719-.761719-13.601562 0-26.824219 2.710937-39.304688 8.054687-3.804687 1.632813-5.570312 6.039063-3.9375 9.847656 1.632813 3.808594 6.042969 5.574219 9.847657 3.941407 10.597656-4.542969 21.835937-6.84375 33.394531-6.84375 35.214844 0 67.175781 22.148437 79.53125 55.113281 1.085938 2.898438 3.839844 4.832031 6.933594 4.867188 24.058594.292968 44.910156 15.941406 51.886718 38.941406.984376 3.238281 3.957032 5.324218 7.175782 5.324218.722656 0 1.453125-.105468 2.179687-.324218 3.964844-1.203125 6.203125-5.390625 5-9.355469-8.394531-27.660156-32.539062-46.972656-60.996093-49.34375-11.984376-27.632813-35.917969-48.136719-64.246094-56.316406 9.742187-17.507813 23.652344-32.378907 40.605468-43.292969 19.613282-12.632812 42.375-19.3125 65.820313-19.3125 64.265625 0 117.644531 50.199219 121.523437 114.28125.234376 3.863281 3.363282 6.910156 7.230469 7.042969 33.074219 1.136719 58.980469 27.960937 58.980469 61.066406 0 33.703125-27.417969 61.125-61.121094 61.125h-52.546875c-4.140625 0-7.5 3.355469-7.5 7.5 0 4.140625 3.359375 7.5 7.5 7.5h48.214844l-90.101563 90.101563c-2.929687 2.925781-2.929687 7.675781 0 10.605468 1.464844 1.464844 3.386719 2.195313 5.304688 2.195313s3.839844-.730469 5.304688-2.195313l103.21875-103.222656c32.609374-8.597656 56.726562-38.335938 56.726562-73.609375zm0 0"/><path d="m404.058594 121.878906c.582031 0 1.171875-.066406 1.757812-.207031 4.027344-.96875 6.507813-5.015625 5.542969-9.046875-1.394531-5.800781-3.304687-11.519531-5.675781-17-1.644532-3.800781-6.0625-5.546875-9.859375-3.902344-3.804688 1.644532-5.550781 6.0625-3.90625 9.863282 2.027343 4.6875 3.664062 9.582031 4.855469 14.546874.828124 3.4375 3.898437 5.746094 7.285156 5.746094zm0 0"/><path d="m374.226562 75c1.472657 1.535156 3.441407 2.304688 5.414063 2.304688 1.867187 0 3.738281-.691407 5.191406-2.085938 2.988281-2.871094 3.085938-7.617188.21875-10.605469-20.03125-20.867187-46.945312-32.359375-75.785156-32.359375-4.144531 0-7.5 3.355469-7.5 7.5 0 4.140625 3.355469 7.5 7.5 7.5 24.71875 0 47.789063 9.851563 64.960937 27.746094zm0 0"/><path d="m323.675781 389.742188h-.101562c-.011719 0-.023438 0-.035157 0-4.125 0-7.480468 3.335937-7.5 7.464843-.019531 4.144531 3.320313 7.519531 7.464844 7.535157h.101563.039062c4.125 0 7.476563-3.332032 7.496094-7.464844.019531-4.140625-3.320313-7.515625-7.464844-7.535156zm0 0"/><path d="m412.964844 338.90625h-.101563c-.011719 0-.023437 0-.039062 0-4.125 0-7.476563 3.332031-7.496094 7.464844-.019531 4.140625 3.320313 7.515625 7.464844 7.535156h.101562.039063c4.125 0 7.476562-3.335938 7.496094-7.464844.019531-4.140625-3.320313-7.515625-7.464844-7.535156zm0 0"/><path d="m38.667969 407.28125h-.105469c-4.140625 0-7.5 3.359375-7.5 7.5s3.359375 7.5 7.5 7.5h.105469c4.140625 0 7.5-3.359375 7.5-7.5s-3.359375-7.5-7.5-7.5zm0 0"/></svg>