<svg viewBox="-21 -79 682.66669 682" height="100%" width="100%" style="fill: white" xmlns="http://www.w3.org/2000/svg"><path d="m603.550781 358.058594h-36.058593c7.9375-40.46875-26.242188-80.324219-69.914063-75.074219-.5-1.402344-1.011719-2.777344-1.578125-4.144531 35.78125-16.535156 60.671875-52.765625 60.671875-94.707032 0-67.054687-62.601563-116.679687-127.773437-101.636718-5.0625 1.164062-8.21875 6.195312-7.054688 11.261718 1.167969 5.042969 6.210938 8.203126 11.261719 7.035157 53.730469-12.335938 104.78125 28.597656 104.78125 83.339843 0 34.726563-20.832031 64.695313-50.652344 78.0625-13.9375-21.203124-35.90625-36.199218-61.132813-41.320312-8.289062-27.730469-32.132812-46.050781-58.109374-50.433594 3.617187-22.21875 15.953124-42.433594 34.503906-55.773437 4.207031-3.03125 5.167968-8.90625 2.144531-13.109375-3.035156-4.207032-8.90625-5.175782-13.117187-2.144532-23.273438 16.746094-38.523438 42.34375-42.429688 70.351563-8.355469.789063-16.558594 3.042969-24.257812 6.699219-11.285157-41.140625-49-70.703125-92.835938-70.703125-41.132812 0-77.265625 25.945312-90.734375 64.0625-43.136719-5.140625-77.828125 33.875-69.890625 75.050781h-36.066406c-19.480469 0-35.308594 15.84375-35.308594 35.308594 0 19.472656 15.828125 35.316406 35.308594 35.316406h186.183594c-5.132813 7.753906-8.679688 16.445312-10.46875 25.699219-35.820313-2.339844-69.8125 19.0625-82.601563 53.625-37.6875-3.820313-68.75 32.6875-58.246094 69.589843-25.84375 16.207032-14.269531 56.160157 16.105469 56.160157h19.539062c5.1875 0 9.390626-4.210938 9.390626-9.394531 0-5.1875-4.203126-9.394532-9.390626-9.394532h-19.539062c-6.398438 0-11.613281-5.195312-11.613281-11.597656 0-5.53125 3.933593-10.316406 9.332031-11.382812 6.035156-1.1875 9.324219-7.796876 6.625-13.324219-13.53125-27.824219 11.996094-58.769531 41.882812-50.863281 5.007813 1.339843 10.207032-1.660157 11.519532-6.765626 9.558594-37.71875 49.953125-57.410156 85.042968-43.632812 21.199219 8.316406 37.101563 27.714844 40 51.511719.859376 7.152343 9.148438 10.695312 14.933594 6.398437 28.066406-20.910156 70.546875-2.113281 70.546875 35.46875 0 29.15625-27.152343 44.1875-38.734375 44.1875h-172.421875c-5.1875 0-9.394531 4.207032-9.394531 9.394532 0 5.183593 4.207031 9.394531 9.394531 9.394531h172.421875c23.457032 0 57.523438-24.539063 57.523438-62.976563 0-10.316406-2.394532-20.160156-6.914063-28.914062h179c5.195313 0 9.386719-4.210938 9.386719-9.394532 0-5.199218-4.191406-9.394531-9.386719-9.394531h-193.964843c-17.960938-15.25-43.859376-20.035156-66.558594-9.941406-7.964844-26.769531-29.050782-47.558594-55.445313-55.460937 2.34375-12 8.417969-21.789063 16.519531-28.992188h116.6875c32.9375 0 68.570313-36.03125 66.546876-74.484375 25.628906 7.6875 45.898437 28.269531 52.738281 55.09375 1.289062 5.097656 6.523437 8.109375 11.511719 6.761719 36.84375-9.640625 67.101562 27.578125 52.714843 60.859375-2.679687 6.210937 1.894531 13.113281 8.628907 13.113281h48.746093c9.113281 0 16.519531 7.414062 16.519531 16.515625 0 9.121094-7.40625 16.535156-16.519531 16.535156h-20.550781c-5.1875 0-9.398438 4.195313-9.398438 9.394531 0 5.183594 4.210938 9.394532 9.398438 9.394532h20.550781c19.472657 0 35.308594-15.84375 35.308594-35.324219 0-19.460937-15.835937-35.300781-35.308594-35.300781zm-195.144531-100.621094c-6.730469 23.351562-30.328125 39.273438-45.742188 39.273438-14.53125 0-310.210937 0-327.355468 0-9.121094 0-16.523438-7.414063-16.523438-16.527344 0-9.109375 7.402344-16.523438 16.523438-16.523438h48.746094c6.757812 0 11.289062-6.929687 8.625-13.113281-6.777344-15.714844-3.929688-33.675781 7.441406-46.863281 11.40625-13.242188 28.339844-18.476563 45.273437-13.996094 5.050781 1.363281 10.238281-1.722656 11.511719-6.761719 8.714844-34.363281 39.585938-58.375 75.09375-58.375 39.101562 0 72.15625 29.21875 76.902344 67.960938.855468 7.125 9.125 10.707031 14.925781 6.394531 40.515625-30.195312 99.039063 7.644531 84.578125 58.53125zm0 0"/><path d="m452.375 58.429688c5.183594 0 9.386719-4.210938 9.386719-9.394532v-43.140625c0-5.191406-4.203125-9.394531-9.386719-9.394531-5.191406 0-9.398438 4.203125-9.398438 9.394531v43.140625c0 5.183594 4.207032 9.394532 9.398438 9.394532zm0 0"/><path d="m376.6875 71.828125c1.742188 3.015625 4.898438 4.703125 8.148438 4.703125 7.140624 0 11.761718-7.800781 8.125-14.09375l-21.574219-37.363281c-2.59375-4.492188-8.339844-6.03125-12.832031-3.4375-4.492188 2.59375-6.03125 8.339843-3.4375 12.832031zm0 0"/><path d="m293.320312 103.144531 37.359376 21.574219c4.472656 2.582031 10.222656 1.070312 12.832031-3.441406 2.589843-4.492188 1.054687-10.234375-3.4375-12.828125l-37.363281-21.574219c-4.492188-2.589844-10.242188-1.054688-12.832032 3.4375-2.59375 4.492188-1.054687 10.242188 3.441406 12.832031zm0 0"/><path d="m564.671875 259.8125 37.359375 21.570312c4.472656 2.582032 10.226562 1.070313 12.832031-3.4375 2.59375-4.492187 1.054688-10.238281-3.4375-12.832031l-37.363281-21.570312c-4.492188-2.59375-10.234375-1.054688-12.828125 3.441406-2.597656 4.492187-1.054687 10.234375 3.4375 12.828125zm0 0"/><path d="m578.078125 184.128906c0 5.1875 4.203125 9.394532 9.386719 9.394532h43.140625c5.191406 0 9.394531-4.207032 9.394531-9.394532s-4.203125-9.390625-9.394531-9.390625h-43.140625c-5.183594 0-9.386719 4.203125-9.386719 9.390625zm0 0"/><path d="m569.375 125.976562c4.457031 0 3.453125-1.046874 42.050781-22.832031 4.492188-2.589843 6.03125-8.339843 3.4375-12.832031s-8.339843-6.035156-12.832031-3.4375l-37.359375 21.570312c-8.300781 4.792969-4.875 17.53125 4.703125 17.53125zm0 0"/><path d="m519.914062 76.53125c3.242188 0 6.398438-1.6875 8.136719-4.703125l21.574219-37.359375c2.59375-4.492188 1.054688-10.238281-3.4375-12.832031s-10.242188-1.054688-12.832031 3.4375l-21.574219 37.363281c-3.632812 6.289062.972656 14.09375 8.132812 14.09375zm0 0"/></svg>